<svg xmlns="http://www.w3.org/2000/svg" fill="none" viewBox="0 0 13.053 13.053">
    <path d="M2.171 6.527L5.222 11.533A1 1 0 0 1 3.515 12.573L.146 7.047A1 1 0 0 1 .146 6.006L3.515 .48A1 1 0 0 1 5.222 1.52zM6.856 6.527L9.907 11.533A1 1 0 0 1 8.199 12.573L4.831 7.047A1 1 0 0 1 4.831 6.006L8.199 .48A1 1 0 0 1 9.907 1.52zM11.223 7.047A1 1 0 0 1 9.515 6.006L11.199 3.243A1 1 0 0 1 12.907 4.284z" />
    <style>
        path { fill: #000; }
        @media (prefers-color-scheme: dark) {
            path { fill: #FFF; }
        }
    </style>
</svg>
